<svg width="240" height="240" viewBox="0 0 240 240" fill="none" xmlns="http://www.w3.org/2000/svg">
<path d="M182.071 84.9674C184.832 84.9674 187.071 87.206 187.071 89.9674V212C187.071 214.761 184.832 217 182.071 217H54C51.2386 217 49 214.761 49 212V30.7942C49 28.0328 51.2386 25.7942 54 25.7942H122.898C125.659 25.7942 127.898 28.0328 127.898 30.7942V79.7344C127.898 82.5521 130.313 84.9674 133.131 84.9674H182.071Z" fill="currentColor"/>
<path d="M184.879 74.8787C186.769 76.7686 185.43 80 182.757 80H136C134.343 80 133 78.6569 133 77V30.2426C133 27.5699 136.231 26.2314 138.121 28.1213L184.879 74.8787Z" fill="currentColor"/>
</svg>
