<svg width="240" height="240" viewBox="0 0 240 240" fill="none" xmlns="http://www.w3.org/2000/svg">
<path d="M95.8586 62.2518H208.569C216 62.2518 217.097 64.0745 220 67V62.2518C220 53.5 217 51 208.569 51H89L95.8586 62.2518Z" fill="currentColor"/>
<path d="M208.58 66.8788H93.3928L84.3478 51.7788C80.5 45 79 44 70.6433 44H30.4205C21.5 44 19 47 19 55.4394V183.561C19 192.5 19 195 30.4205 195H208.58C217.5 195 220 192 220 183.561V78.3182C220 70 217.5 66.8788 208.58 66.8788Z" fill="currentColor"/>
</svg>
