<svg width="240" height="240" viewBox="0 0 240 240" fill="none" xmlns="http://www.w3.org/2000/svg">
<path d="M231 57C231 54.2386 228.761 52 226 52L15 52C12.2386 52 10 54.2386 10 57V183C10 185.761 12.2386 188 15 188H226C228.761 188 231 185.761 231 183L231 57ZM110.652 156.124C107.89 156.124 105.652 153.885 105.652 151.124V123.237C105.652 120.401 102.08 119.148 100.309 121.363L88.3199 136.356C86.3183 138.859 82.5115 138.859 80.5099 136.356L68.5212 121.363C66.7499 119.148 63.1782 120.401 63.1782 123.237V151.124C63.1782 153.885 60.9396 156.124 58.1782 156.124H46.8724C44.1109 156.124 41.8724 153.885 41.8724 151.124V88.8761C41.8724 86.1146 44.1109 83.8761 46.8724 83.8761H60.7053C62.2246 83.8761 63.6615 84.5669 64.6103 85.7534L80.4408 105.55C82.4424 108.053 86.2492 108.053 88.2508 105.55L104.081 85.7534C105.03 84.5669 106.467 83.8761 107.986 83.8761H121.819C124.581 83.8761 126.819 86.1146 126.819 88.8761V151.124C126.819 153.885 124.581 156.124 121.819 156.124H110.652ZM177.405 152.759C175.41 155.09 171.807 155.091 169.81 152.761L148.809 128.253C146.03 125.01 148.334 120 152.606 120H157.973C160.735 120 162.973 117.761 162.973 115V88.8761C162.973 86.1146 165.212 83.8761 167.973 83.8761H179.21C181.972 83.8761 184.21 86.1146 184.21 88.8761V115C184.21 117.761 186.449 120 189.21 120H194.585C198.856 120 201.161 125.007 198.384 128.251L177.405 152.759Z" fill="currentColor"/>
</svg>
